<?xml version="1.0" standalone="no"?><!DOCTYPE svg PUBLIC "-//W3C//DTD SVG 1.1//EN" "http://www.w3.org/Graphics/SVG/1.1/DTD/svg11.dtd"><svg width="100%" height="100%" viewBox="0 0 286 115" version="1.1" xmlns="http://www.w3.org/2000/svg" xmlns:xlink="http://www.w3.org/1999/xlink" xml:space="preserve" style="fill-rule:evenodd;clip-rule:evenodd;stroke-linejoin:round;stroke-miterlimit:1.41421;"><g><path d="M38.981,47.11l-0.316,-2.317l-13.585,1.853c-1.01,-3.073 -3.899,-5.294 -7.31,-5.294c-4.252,0 -7.698,3.447 -7.698,7.699c0,4.251 3.446,7.698 7.698,7.698c4.251,0 7.698,-3.447 7.698,-7.698c0,-0.033 -0.004,-0.064 -0.005,-0.097l13.518,-1.844Z" style="fill:#bf3132;fill-rule:nonzero;"/><path d="M41.158,19.326c0.491,-0.815 0.748,-1.782 0.679,-2.803c-0.18,-2.651 -2.475,-4.655 -5.126,-4.475c-2.651,0.179 -4.655,2.474 -4.475,5.125c0.058,0.85 0.334,1.632 0.769,2.298c0.883,1.463 2.531,2.394 4.353,2.271c0.234,-0.016 0.461,-0.054 0.684,-0.103l6.576,13.489l1.872,-0.913l-6.559,-13.454c0.502,-0.39 0.918,-0.88 1.227,-1.435" style="fill:#bf3132;fill-rule:nonzero;"/><path d="M80.293,10.709c-3.632,0 -6.576,2.944 -6.576,6.576c0,1.31 0.388,2.528 1.049,3.554l-19.304,16.979l1.473,1.675l19.34,-17.011c1.112,0.861 2.503,1.378 4.018,1.378c3.631,0 6.575,-2.944 6.575,-6.575c0,-3.632 -2.944,-6.576 -6.575,-6.576" style="fill:#bf3132;fill-rule:nonzero;"/><path d="M65.68,70.87c-1.194,-0.511 -2.465,-0.574 -3.632,-0.273l-4.791,-11.295l-1.933,0.809l4.825,11.376c-0.805,0.581 -1.472,1.375 -1.891,2.354c-1.229,2.869 0.101,6.192 2.97,7.421c2.87,1.229 6.193,-0.101 7.422,-2.97c1.229,-2.87 -0.101,-6.193 -2.97,-7.422" style="fill:#bf3132;fill-rule:nonzero;"/><path d="M40.859,59.182l-4.244,6.96c-1.524,-0.593 -3.314,-0.136 -4.349,1.232c-1.25,1.653 -0.923,4.007 0.73,5.256c1.653,1.25 4.006,0.923 5.256,-0.73c1.127,-1.49 0.968,-3.547 -0.285,-4.854l4.279,-7.018l-1.387,-0.846Z" style="fill:#bf3132;fill-rule:nonzero;"/><path d="M79.986,84.431c-0.665,-1.067 -2.068,-1.395 -3.135,-0.73c-10.641,6.62 -23.221,8.741 -35.421,5.983c-25.445,-5.758 -41.463,-31.143 -35.705,-56.588c2.686,-11.877 9.781,-22.149 19.976,-28.924c1.047,-0.696 1.332,-2.109 0.636,-3.156c-0.695,-1.046 -2.107,-1.331 -3.155,-0.636c-11.174,7.426 -18.951,18.688 -21.898,31.711c-6.31,27.893 11.248,55.721 39.141,62.033c1.591,0.359 3.187,0.639 4.785,0.848l0,13.643l-15.982,0c-0.639,0 -1.157,0.517 -1.157,1.156l0,3.429c0,0.639 0.518,1.157 1.157,1.157l39.852,0c0.639,0 1.157,-0.518 1.157,-1.157l0,-3.429c0,-0.639 -0.518,-1.156 -1.157,-1.156l-15.981,0l0,-13.218c9.172,-0.207 18.164,-2.859 26.156,-7.83c1.068,-0.664 1.395,-2.068 0.731,-3.136" style="fill:#bf3132;fill-rule:nonzero;"/><path d="M40.482,41.592c0.846,-1.837 2.43,-3.34 4.755,-4.505c2.455,-1.231 4.681,-1.619 6.676,-1.164c1.994,0.453 3.688,1.718 5.082,3.792l-16.913,8.479c-0.579,-2.563 -0.446,-4.764 0.4,-6.602M61.84,49.095c-0.236,1.8 -0.736,3.336 -1.504,4.604c-1.042,1.718 -2.703,3.15 -4.984,4.293c-2.563,1.286 -5.022,1.506 -7.376,0.66c-2.355,-0.844 -4.342,-2.668 -5.964,-5.471l24.701,-12.384l-0.67,-1.336c-2.571,-5.127 -5.96,-8.416 -10.167,-9.868c-4.208,-1.452 -8.8,-0.93 -13.774,1.563c-4.758,2.386 -7.872,5.897 -9.339,10.533c-1.467,4.638 -0.987,9.38 1.442,14.224c2.527,5.04 6.014,8.334 10.461,9.883c4.447,1.55 9.146,1.083 14.1,-1.401c3.454,-1.732 6.081,-4 7.883,-6.806c1.256,-1.956 2.108,-4.204 2.576,-6.73l-7.385,-1.764Z" style="fill:#fff;fill-rule:nonzero;"/><path d="M83.279,47.024c0,3.468 0.754,6 2.264,7.599c1.508,1.598 3.455,2.397 5.842,2.397c1.305,0 2.533,-0.179 3.681,-0.54c1.148,-0.36 2.082,-0.787 2.803,-1.283l0,-18.305c-0.585,-0.135 -1.306,-0.258 -2.161,-0.371c-0.857,-0.112 -1.937,-0.169 -3.242,-0.169c-2.972,0 -5.247,0.979 -6.822,2.938c-1.577,1.959 -2.365,4.537 -2.365,7.734M106.042,62.018c0,5.629 -1.43,9.749 -4.289,12.361c-2.86,2.611 -7.239,3.917 -13.137,3.917c-2.162,0 -4.267,-0.18 -6.316,-0.54c-2.05,-0.361 -3.906,-0.833 -5.573,-1.418l1.487,-6.957c1.395,0.584 2.983,1.057 4.762,1.418c1.778,0.36 3.702,0.541 5.774,0.541c3.287,0 5.629,-0.676 7.025,-2.027c1.396,-1.351 2.094,-3.355 2.094,-6.011l0,-1.351c-0.81,0.405 -1.881,0.81 -3.208,1.216c-1.329,0.405 -2.848,0.608 -4.56,0.608c-2.251,0 -4.312,-0.361 -6.18,-1.081c-1.869,-0.72 -3.468,-1.778 -4.795,-3.175c-1.329,-1.395 -2.364,-3.141 -3.107,-5.234c-0.744,-2.094 -1.115,-4.513 -1.115,-7.261c0,-2.566 0.394,-4.931 1.182,-7.092c0.788,-2.162 1.935,-4.008 3.445,-5.538c1.508,-1.531 3.343,-2.725 5.505,-3.58c2.161,-0.855 4.615,-1.284 7.362,-1.284c2.657,0 5.178,0.203 7.565,0.608c2.386,0.406 4.412,0.834 6.079,1.283l0,30.597Z" style="fill:#fff;fill-rule:nonzero;"/><path d="M128.871,59.857c2.522,0 4.435,-0.135 5.742,-0.405l0,-9.051c-0.451,-0.136 -1.105,-0.27 -1.959,-0.406c-0.856,-0.134 -1.801,-0.202 -2.837,-0.202c-0.901,0 -1.813,0.068 -2.736,0.202c-0.923,0.136 -1.755,0.383 -2.498,0.744c-0.744,0.36 -1.341,0.867 -1.79,1.519c-0.451,0.653 -0.676,1.475 -0.676,2.466c0,1.936 0.608,3.275 1.823,4.019c1.217,0.742 2.859,1.114 4.931,1.114M128.196,29.395c2.702,0 4.975,0.338 6.822,1.013c1.846,0.676 3.32,1.621 4.424,2.837c1.103,1.215 1.891,2.691 2.364,4.424c0.473,1.734 0.709,3.637 0.709,5.708l0,21.411c-1.261,0.27 -3.163,0.597 -5.707,0.979c-2.544,0.382 -5.415,0.574 -8.612,0.574c-2.117,0 -4.052,-0.203 -5.809,-0.607c-1.755,-0.406 -3.254,-1.059 -4.491,-1.959c-1.239,-0.901 -2.207,-2.071 -2.904,-3.513c-0.699,-1.441 -1.048,-3.219 -1.048,-5.336c0,-2.026 0.394,-3.737 1.182,-5.133c0.788,-1.395 1.858,-2.533 3.209,-3.411c1.351,-0.878 2.915,-1.508 4.694,-1.891c1.778,-0.383 3.636,-0.574 5.572,-0.574c0.901,0 1.846,0.057 2.837,0.168c0.99,0.113 2.049,0.304 3.175,0.575l0,-1.351c0,-0.946 -0.113,-1.846 -0.338,-2.702c-0.226,-0.855 -0.619,-1.609 -1.182,-2.262c-0.563,-0.653 -1.307,-1.16 -2.229,-1.52c-0.924,-0.361 -2.083,-0.541 -3.478,-0.541c-1.891,0 -3.625,0.135 -5.201,0.405c-1.577,0.27 -2.86,0.586 -3.85,0.946l-1.013,-6.619c1.034,-0.36 2.543,-0.72 4.525,-1.081c1.981,-0.36 4.097,-0.54 6.349,-0.54" style="fill:#fff;fill-rule:nonzero;"/><path d="M172.639,37.635c-0.676,-0.225 -1.61,-0.461 -2.803,-0.709c-1.193,-0.248 -2.578,-0.371 -4.153,-0.371c-0.902,0 -1.858,0.09 -2.871,0.27c-1.014,0.18 -1.723,0.337 -2.128,0.472l0,28.301l-8.173,0l0,-33.636c1.576,-0.586 3.546,-1.137 5.911,-1.656c2.363,-0.516 4.986,-0.777 7.868,-0.777c0.54,0 1.171,0.035 1.891,0.102c0.72,0.067 1.441,0.159 2.161,0.271c0.721,0.113 1.419,0.247 2.095,0.404c0.675,0.159 1.215,0.304 1.621,0.44l-1.419,6.889Z" style="fill:#fff;fill-rule:nonzero;"/><path d="M187.972,65.598l-8.173,0l0,-35.325l8.173,0l0,35.325ZM188.849,19.939c0,1.531 -0.496,2.747 -1.485,3.647c-0.992,0.902 -2.162,1.351 -3.513,1.351c-1.396,0 -2.589,-0.449 -3.579,-1.351c-0.992,-0.9 -1.487,-2.116 -1.487,-3.647c0,-1.576 0.495,-2.814 1.487,-3.715c0.99,-0.9 2.183,-1.351 3.579,-1.351c1.351,0 2.521,0.451 3.513,1.351c0.989,0.901 1.485,2.139 1.485,3.715" style="fill:#fff;fill-rule:nonzero;"/><path d="M197.966,20.952l8.173,-1.351l0,10.672l12.563,0l0,6.822l-12.563,0l0,14.387c0,2.836 0.45,4.863 1.351,6.079c0.901,1.215 2.431,1.823 4.594,1.823c1.485,0 2.802,-0.157 3.951,-0.472c1.147,-0.316 2.059,-0.609 2.735,-0.879l1.351,6.484c-0.945,0.405 -2.185,0.823 -3.715,1.25c-1.531,0.427 -3.333,0.641 -5.403,0.641c-2.523,0 -4.627,-0.337 -6.316,-1.012c-1.689,-0.676 -3.029,-1.656 -4.019,-2.939c-0.99,-1.283 -1.688,-2.837 -2.094,-4.66c-0.404,-1.824 -0.608,-3.907 -0.608,-6.248l0,-30.597Z" style="fill:#fff;fill-rule:nonzero;"/><path d="M239.034,59.857c2.522,0 4.434,-0.135 5.741,-0.405l0,-9.051c-0.451,-0.136 -1.104,-0.27 -1.959,-0.406c-0.856,-0.134 -1.801,-0.202 -2.836,-0.202c-0.902,0 -1.814,0.068 -2.736,0.202c-0.924,0.136 -1.756,0.383 -2.499,0.744c-0.743,0.36 -1.34,0.867 -1.79,1.519c-0.45,0.653 -0.675,1.475 -0.675,2.466c0,1.936 0.608,3.275 1.823,4.019c1.216,0.742 2.859,1.114 4.931,1.114M238.359,29.395c2.701,0 4.975,0.338 6.822,1.013c1.846,0.676 3.319,1.621 4.424,2.837c1.103,1.215 1.891,2.691 2.363,4.424c0.474,1.734 0.71,3.637 0.71,5.708l0,21.411c-1.262,0.27 -3.164,0.597 -5.707,0.979c-2.545,0.382 -5.415,0.574 -8.612,0.574c-2.117,0 -4.053,-0.203 -5.809,-0.607c-1.756,-0.406 -3.254,-1.059 -4.492,-1.959c-1.239,-0.901 -2.206,-2.071 -2.904,-3.513c-0.698,-1.441 -1.047,-3.219 -1.047,-5.336c0,-2.026 0.394,-3.737 1.182,-5.133c0.788,-1.395 1.857,-2.533 3.208,-3.411c1.351,-0.878 2.915,-1.508 4.694,-1.891c1.778,-0.383 3.636,-0.574 5.573,-0.574c0.9,0 1.846,0.057 2.837,0.168c0.989,0.113 2.048,0.304 3.174,0.575l0,-1.351c0,-0.946 -0.113,-1.846 -0.338,-2.702c-0.226,-0.855 -0.619,-1.609 -1.182,-2.262c-0.563,-0.653 -1.306,-1.16 -2.229,-1.52c-0.923,-0.361 -2.083,-0.541 -3.478,-0.541c-1.891,0 -3.625,0.135 -5.201,0.405c-1.576,0.27 -2.859,0.586 -3.85,0.946l-1.013,-6.619c1.035,-0.36 2.544,-0.72 4.525,-1.081c1.981,-0.36 4.097,-0.54 6.35,-0.54" style="fill:#fff;fill-rule:nonzero;"/><path d="M271.521,59.722c2.162,0 3.737,-0.259 4.729,-0.777c0.99,-0.517 1.486,-1.407 1.486,-2.668c0,-1.17 -0.53,-2.138 -1.588,-2.904c-1.059,-0.765 -2.802,-1.598 -5.234,-2.499c-1.486,-0.541 -2.849,-1.114 -4.087,-1.723c-1.239,-0.608 -2.308,-1.317 -3.208,-2.128c-0.901,-0.81 -1.611,-1.789 -2.127,-2.938c-0.519,-1.147 -0.777,-2.554 -0.777,-4.221c0,-3.242 1.192,-5.797 3.58,-7.666c2.386,-1.868 5.628,-2.803 9.726,-2.803c2.071,0 4.052,0.192 5.943,0.574c1.891,0.383 3.31,0.754 4.256,1.115l-1.486,6.618c-0.901,-0.405 -2.05,-0.776 -3.445,-1.114c-1.396,-0.338 -3.017,-0.507 -4.863,-0.507c-1.667,0 -3.018,0.282 -4.052,0.845c-1.037,0.563 -1.554,1.43 -1.554,2.601c0,0.585 0.101,1.103 0.304,1.553c0.202,0.451 0.55,0.867 1.046,1.249c0.496,0.384 1.149,0.767 1.959,1.149c0.811,0.383 1.801,0.776 2.972,1.182c1.936,0.721 3.58,1.43 4.931,2.128c1.351,0.698 2.466,1.485 3.343,2.363c0.878,0.879 1.52,1.881 1.926,3.006c0.404,1.126 0.608,2.477 0.608,4.052c0,3.378 -1.25,5.934 -3.749,7.667c-2.499,1.733 -6.068,2.6 -10.706,2.6c-3.107,0 -5.606,-0.26 -7.497,-0.777c-1.892,-0.516 -3.22,-0.934 -3.985,-1.249l1.418,-6.822c1.216,0.496 2.668,0.968 4.357,1.418c1.688,0.451 3.613,0.676 5.774,0.676" style="fill:#fff;fill-rule:nonzero;"/></g></svg>